<svg xmlns="http://www.w3.org/2000/svg" viewBox="0 0 48 48"><defs><linearGradient id="bg" x1="0" y1="0" x2=".35" y2="1"><stop offset="0" stop-color="#0F463E"/><stop offset=".6" stop-color="#0A342D"/><stop offset="1" stop-color="#062520"/></linearGradient><linearGradient id="au" x1="0" y1="0" x2="0" y2="1"><stop offset="0" stop-color="#EBD9B0"/><stop offset="1" stop-color="#C9A96A"/></linearGradient></defs><rect width="48" height="48" fill="url(#bg)"/><path d="M9 46V22a15 15 0 0 1 30 0V46" fill="none" stroke="#BF9E5E" stroke-opacity=".38" stroke-width=".7"/><g transform="translate(24 25) scale(0.95) translate(-24 -24)"><g fill="url(#au)"><path d="M25.2 1.6a2.6 2.6 0 1 0 0 5a2.05 2.05 0 1 1 0-5Z"/><rect x="23.4" y="6.4" width="1.2" height="2.6"/><path d="M24 8.6C21.6 10.6 20.6 12.4 21 14.6H27C27.4 12.4 26.4 10.6 24 8.6Z"/><rect x="19.6" y="14.6" width="8.8" height="2" rx=".5"/><rect x="21.4" y="16.6" width="5.2" height="8.6"/><rect x="19" y="25.2" width="10" height="2" rx=".5"/><path d="M21 27.2H27L27.8 41.4H20.2Z"/><rect x="17" y="41.4" width="14" height="2.8" rx=".7"/></g><g fill="#0A342D"><rect x="23.25" y="18.8" width="1.5" height="3.6" rx=".75"/><rect x="23.25" y="29.6" width="1.5" height="3.2" rx=".75"/><path d="M22.7 38.4V35.4a1.3 1.3 0 0 1 2.6 0V38.4Z"/></g></g></svg>